<svg xmlns="http://www.w3.org/2000/svg" viewBox="0 0 24 24" width="24" height="24" fill="none" stroke="currentColor" stroke-width="1.5" stroke-linecap="round" stroke-linejoin="round" role="img" aria-labelledby="peanuts-title">
  <title id="peanuts-title">Cacahuetes</title>
  <!-- Peanut shape -->
  <path d="M8 5c-2 0-4 2-4 4.5S6 14 8 14"/>
  <path d="M16 5c2 0 4 2 4 4.5S18 14 16 14"/>
  <path d="M8 5c1.5 0 3 1 4 1s2.5-1 4-1"/>
  <path d="M8 14c1.5 0 3-1 4-1s2.5 1 4 1"/>
  <line x1="12" y1="6" x2="12" y2="13"/>
  <path d="M9 17l-1 3"/>
  <path d="M15 17l1 3"/>
</svg>
